<?xml version="1.0" standalone="no"?>
<!DOCTYPE svg PUBLIC "-//W3C//DTD SVG 20010904//EN"
 "http://www.w3.org/TR/2001/REC-SVG-20010904/DTD/svg10.dtd">
<svg version="1.0" xmlns="http://www.w3.org/2000/svg"
 width="524.000000pt" height="524.000000pt" viewBox="0 0 524.000000 524.000000"
 preserveAspectRatio="xMidYMid meet">
<metadata>
Created by potrace 1.14, written by Peter Selinger 2001-2017
</metadata>
<g transform="translate(0.000000,524.000000) scale(0.100000,-0.100000)"
fill="#000000" stroke="none">
<path d="M2825 5234 c-375 -39 -674 -123 -975 -273 -786 -393 -1315 -1142
-1426 -2016 -21 -172 -22 -480 0 -641 56 -426 189 -786 416 -1127 619 -931
1754 -1364 2850 -1087 192 48 337 103 532 201 210 105 425 253 583 402 l80 76
-215 216 c-236 238 -271 267 -386 324 -224 112 -447 116 -717 15 -186 -70
-304 -94 -487 -101 -130 -4 -175 -2 -278 16 -305 52 -550 178 -768 395 -336
336 -478 804 -384 1264 102 505 462 905 952 1061 317 101 642 88 966 -39 128
-49 227 -70 341 -70 164 0 312 42 451 127 55 34 136 107 304 273 l228 226 -93
84 c-398 354 -856 570 -1384 651 -125 20 -487 33 -590 23z"/>
<path d="M2960 3059 c-283 -48 -443 -354 -321 -614 79 -170 272 -274 454 -245
289 46 451 352 327 617 -80 172 -273 273 -460 242z"/>
</g>
</svg>
