<svg xmlns="http://www.w3.org/2000/svg" xmlns:xlink="http://www.w3.org/1999/xlink" width="170.435" height="39.891" viewBox="0 0 170.435 39.891"><defs><linearGradient id="a" x2="1" y2="1" gradientUnits="objectBoundingBox"><stop offset="0" stop-color="#dd342b"/><stop offset="1" stop-color="#d82eb4"/></linearGradient><clipPath id="b"><rect width="34.043" height="39.891" fill="url(#a)"/></clipPath><clipPath id="d"><rect width="129.597" height="11.282" fill="none"/></clipPath></defs><g transform="translate(-140.811 -26.771)"><g transform="translate(140.811 26.771)"><g transform="translate(0 0)" clip-path="url(#b)"><path d="M24.1,29.8A6.361,6.361,0,0,1,31.1,31.114l2.943,2.943a19.956,19.956,0,1,1,0-28.221L31.1,8.779A6.361,6.361,0,0,1,24.1,10.091a10.7,10.7,0,1,0,0,19.71m-.869-9.895a3.306,3.306,0,1,0-3.306,3.306,3.31,3.31,0,0,0,3.306-3.306" transform="translate(0 -0.001)" fill="url(#a)"/></g></g><g transform="translate(181.649 41.077)"><g transform="translate(0 0)" clip-path="url(#d)"><path d="M80.6,11.282V11.26h-.05V.023h.05V0H91.837V2.353H82.9V4.465h6.763V6.818H82.9V8.929h8.933v2.353Zm-34.468,0V11.26h-.05V.023h.05V0H57.373V2.353H48.438V4.465H55.2V6.818H48.438V8.929h8.935v2.353Zm-43.806,0L0,8.954V2.329L2.329,0h8.86V2.329H3.15l-.825.825V8.069l.891.885H11.19v2.329Zm37.656-.012L35.911,7.2h2.981l4.074,4.074Zm36.391-.012H74.022V3.131l-.752-.752H70.151v8.885H67.8V2.377H63.621v8.885H61.265V.023H74.179l2.2,2.2v9.036Zm50.866,0V7.007h-6.833v4.251h-2.353V.023h8.96V.041h.219l2.335,2.336v.38h.026v8.5Zm0-6.6V3.178h-.008a7.232,7.232,0,0,1-.677-.8H120.41V4.654Zm-15.867,6.608V.023h2.356V11.259Zm-7.035,0H97.785V8.905h6.574a9.805,9.805,0,0,1,.762-.659V3.159a6.393,6.393,0,0,1-.66-.782H97.783V.023h6.833V.041h.523l2.336,2.336V8.923l-2.336,2.336Zm-8.908,0V.023h2.353V11.259Zm-64.911,0V.023H39.1V.041h.523l2.336,2.336V7.2H32.874v4.062ZM39.6,4.844V3.159a6.375,6.375,0,0,1-.66-.782H32.874V4.844ZM26.115,11.261H14.653V.023H26.345V11.259ZM23.989,8.908V2.377h-6.98V8.906Z" fill="#363936"/></g></g></g></svg>