<?xml version="1.0" encoding="utf-8"?>
<!-- Generator: Adobe Illustrator 24.3.0, SVG Export Plug-In . SVG Version: 6.00 Build 0)  -->
<svg version="1.1" id="Ebene_1" xmlns="http://www.w3.org/2000/svg" x="0px" y="0px"
     viewBox="0 0 24 24" style="enable-background:new 0 0 24 24;" xml:space="preserve">
<path d="M22.95,11.04c-0.01-0.13-0.03-0.26-0.04-0.39c-0.02-0.16-0.05-0.32-0.07-0.48c-0.07-0.4-0.15-0.79-0.26-1.17c0,0,0,0,0,0
	l0,0C21.27,4.39,17.03,1,12,1S2.73,4.39,1.42,9l0,0c0,0,0,0,0,0c-0.11,0.38-0.19,0.77-0.26,1.17c-0.03,0.16-0.05,0.32-0.07,0.48
	c-0.02,0.13-0.03,0.26-0.04,0.39C1.02,11.36,1,11.68,1,12c0,6.08,4.92,11,11,11s11-4.92,11-11C23,11.68,22.98,11.36,22.95,11.04z
	 M12,2c5.1,0,9.29,3.82,9.91,8.74C20.14,14.44,16.37,17,12,17s-8.14-2.56-9.91-6.26C2.71,5.82,6.9,2,12,2z"/>
</svg>
