<?xml version="1.0" encoding="utf-8"?>
<!-- Generator: Adobe Illustrator 19.2.1, SVG Export Plug-In . SVG Version: 6.00 Build 0)  -->
<svg version="1.1" id="Layer_1" xmlns="http://www.w3.org/2000/svg" x="0px" y="0px"
	 viewBox="0 0 24 24" enable-background="new 0 0 24 24" xml:space="preserve">
<g>
	<path fill="#3D4242" d="M6.33,14.15h1.44L4.39,7.38L1,14.15h1.84c0.69,4.13,3.87,7.41,7.94,8.25l1.8-3.2
		C9.55,19.09,7.06,16.99,6.33,14.15z"/>
	<path fill="#3D4242" d="M13.68,7.33l7.57,0.01l-4.53-6.06l-0.76,1.53c-0.98-0.32-2.02-0.5-3.11-0.5c-2.96,0-5.62,1.27-7.48,3.3
		L7.06,9c1.18-1.97,3.33-3.31,5.78-3.31c0.54,0,1.05,0.08,1.56,0.2L13.68,7.33z"/>
	<path fill="#3D4242" d="M19.35,14.3l1.55-1.55l1.06-1.06l1.03,1.03c0-0.08,0.01-0.17,0.01-0.25c0-1.19-0.21-2.32-0.59-3.38h-3.74
		c0.58,1,0.93,2.15,0.93,3.38C19.61,13.1,19.51,13.71,19.35,14.3z"/>
</g>
<polygon fill="#3D4242" points="21.96,13.8 18.9,16.86 15.84,13.8 13.8,15.84 16.86,18.9 13.8,21.96 15.84,24 18.9,20.94 21.96,24
	24,21.96 20.94,18.9 24,15.84 "/>
</svg>
