<svg width="24" height="24" viewBox="0 0 24 24" fill="none" xmlns="http://www.w3.org/2000/svg">
<path d="M22.78 18.62L13.35 2.76C13.06 2.29 12.55 2 12 2C11.45 2 10.94 2.29 10.65 2.76L1.21999 18.62C0.929992 19.11 0.919992 19.71 1.19999 20.2C1.47999 20.7 2.00999 21 2.56999 21H21.43C22 21 22.52 20.7 22.8 20.2C23.08 19.71 23.07 19.11 22.78 18.62ZM11 6H13V15H11V6ZM12 19C11.17 19 10.5 18.33 10.5 17.5C10.5 16.67 11.17 16 12 16C12.83 16 13.5 16.67 13.5 17.5C13.5 18.33 12.83 19 12 19Z" fill="#3F3F3F"/>
</svg>
