<svg xmlns="http://www.w3.org/2000/svg" height="24px" viewBox="0 0 24 24" width="24px"><path d="M0 0h24v24H0V0z" fill="none"/><path d="M 12,1 C 5.928,1 1,5.928 1,12 1,18.072 5.928,23 12,23 18.072,23 23,18.072 23,12 23,5.928 18.072,1 12,1 Z m 0.166015,3.4902343 c 0.859375,0 1.666668,0.123698 2.421876,0.3710938 0.755208,0.2473959 1.425781,0.6022136 2.011718,1.0644532 0.585938,0.4557291 1.061198,0.9993489 1.425782,1.6308593 0.371093,0.6315105 0.595703,1.3346355 0.673828,2.109375 H 15.125 C 15.059896,9.3404948 14.949219,9.0475261 14.792968,8.7871093 14.636719,8.5266927 14.438151,8.3053386 14.197265,8.1230469 13.956381,7.9407552 13.676433,7.8007812 13.357422,7.703125 13.038411,7.6054688 12.683594,7.5566406 12.292969,7.5566406 11.53776,7.5566406 10.89323,7.7356771 10.359375,8.09375 9.8320309,8.4453125 9.4283855,8.9531251 9.1484376,9.6171875 8.8684895,10.27474 8.7285156,11.072266 8.7285156,12.009766 c 0,0.930989 0.1399739,1.728516 0.419922,2.392578 0.2864582,0.657551 0.6966151,1.162109 1.2304684,1.513671 0.540365,0.351563 1.191407,0.527345 1.953126,0.527345 0.624999,0 1.165364,-0.107426 1.621093,-0.322266 0.45573,-0.214844 0.804036,-0.514323 1.044922,-0.898437 0.236238,-0.373008 0.358486,-0.803263 0.369141,-1.289064 h -2.908203 v -2.578125 h 6.347655 v 1.972657 c 0,1.230468 -0.279947,2.311199 -0.839843,3.242188 -0.553386,0.924479 -1.32487,1.647135 -2.314454,2.167968 -0.983073,0.514324 -2.125651,0.771485 -3.427734,0.771485 -1.40625,0 -2.6367186,-0.309245 -3.6914059,-0.927734 C 7.4785157,17.963542 6.6582032,17.091145 6.0722657,15.964843 5.4863281,14.838542 5.1933594,13.520182 5.1933594,12.009766 c 0,-1.582032 0.3059896,-2.9329431 0.9179687,-4.0527347 0.6119793,-1.1263021 1.4453125,-1.9856771 2.5,-2.578125 1.0546873,-0.5924479 2.2395829,-0.888672 3.5546869,-0.888672 z"/></svg>
