<?xml version="1.0" encoding="UTF-8" standalone="no"?>
<!-- Generator: Adobe Illustrator 24.3.0, SVG Export Plug-In . SVG Version: 6.00 Build 0)  -->

<svg
   xmlns:dc="http://purl.org/dc/elements/1.1/"
   xmlns:cc="http://creativecommons.org/ns#"
   xmlns:rdf="http://www.w3.org/1999/02/22-rdf-syntax-ns#"
   xmlns:svg="http://www.w3.org/2000/svg"
   xmlns="http://www.w3.org/2000/svg"
   xmlns:sodipodi="http://sodipodi.sourceforge.net/DTD/sodipodi-0.dtd"
   xmlns:inkscape="http://www.inkscape.org/namespaces/inkscape"
   version="1.1"
   id="Ebene_1"
   x="0px"
   y="0px"
   viewBox="0 0 24 24"
   style="enable-background:new 0 0 24 24;"
   xml:space="preserve"
   sodipodi:docname="global-link-workflow-canceled.svg"
   inkscape:version="0.92.5 (2060ec1f9f, 2020-04-08)"><metadata
   id="metadata9"><rdf:RDF><cc:Work
       rdf:about=""><dc:format>image/svg+xml</dc:format><dc:type
         rdf:resource="http://purl.org/dc/dcmitype/StillImage" /><dc:title></dc:title></cc:Work></rdf:RDF></metadata><defs
   id="defs7" /><sodipodi:namedview
   pagecolor="#ffffff"
   bordercolor="#666666"
   borderopacity="1"
   objecttolerance="10"
   gridtolerance="10"
   guidetolerance="10"
   inkscape:pageopacity="0"
   inkscape:pageshadow="2"
   inkscape:window-width="1502"
   inkscape:window-height="1030"
   id="namedview5"
   showgrid="false"
   inkscape:zoom="19.666667"
   inkscape:cx="20.19559"
   inkscape:cy="14.551053"
   inkscape:window-x="129"
   inkscape:window-y="98"
   inkscape:window-maximized="0"
   inkscape:current-layer="Ebene_1" />
<path
   id="path2"
   d="M 12,1 C 6.97,1 2.7299219,4.39 1.4199219,9 c -0.11,0.38 -0.1897656,0.7699214 -0.2597657,1.169922 -0.03,0.16 -0.050312,0.320469 -0.070312,0.480469 -0.02,0.13 -0.02906,0.258671 -0.039063,0.388671 C 1.0207813,11.359065 1,11.68 1,12 c 0,5.166612 3.5571369,9.483907 8.3554688,10.667969 -0.00102,-0.03321 -0.0027,-0.06639 -0.00391,-0.09961 -0.00456,-0.126209 -0.00894,-0.252704 -0.013672,-0.378906 -0.00471,-0.125306 -0.010732,-0.249702 -0.015625,-0.375 -0.00488,-0.124322 -0.00858,-0.248734 -0.013672,-0.373047 -0.00507,-0.123272 -0.010324,-0.247831 -0.015625,-0.371094 -0.00523,-0.121569 -0.012091,-0.241722 -0.017578,-0.363281 -0.00544,-0.120234 -0.00992,-0.241106 -0.015625,-0.361328 -0.00564,-0.118997 -0.011652,-0.238438 -0.017578,-0.357422 -0.00582,-0.116966 -0.011428,-0.23266 -0.017578,-0.349609 -0.00603,-0.114878 -0.013157,-0.230843 -0.019531,-0.345703 -0.00642,-0.11557 -0.012996,-0.23014 -0.019531,-0.345703 -0.00645,-0.118353 -0.01181,-0.237082 -0.017578,-0.355469 -0.00519,-0.109262 -0.010322,-0.218868 -0.015625,-0.328125 -0.00495,-0.102479 -0.00834,-0.20418 -0.013672,-0.306641 -0.00504,-0.09667 -0.010123,-0.194368 -0.015625,-0.291015 -0.00562,-0.09905 -0.01247,-0.197794 -0.017578,-0.296875 -0.00493,-0.0914 -0.010383,-0.182056 -0.015625,-0.273438 -0.00526,-0.09218 -0.00878,-0.185139 -0.013672,-0.277344 -0.0044,-0.07949 -0.010836,-0.158821 -0.015625,-0.238281 C 5.9847675,15.723544 3.4462108,13.575579 2.0898438,10.740234 2.7098433,5.8202364 6.9,2 12,2 c 4.298436,0 7.942479,2.7169558 9.355469,6.515625 0.252583,0.00525 0.505676,0.01265 0.757812,0.019531 0.105493,0.00293 0.210931,0.00689 0.316407,0.00977 C 20.976178,4.1706514 16.861524,1 12,1 Z" />
<polygon
   transform="matrix(1.1345962,0,0,1.1296112,-5.1981056,-5.8411765)"
   style="fill:#3d4242"
   points="15.84,13.8 13.8,15.84 16.86,18.9 13.8,21.96 15.84,24 18.9,20.94 21.96,24 24,21.96 20.94,18.9 24,15.84 21.96,13.8 18.9,16.86 "
   id="polygon10" /></svg>
