<svg xmlns="http://www.w3.org/2000/svg" height="24px" viewBox="0 0 24 24" width="24px"><path d="M0 0h24v24H0V0z" fill="none"/><path d="M 12,1 C 5.928,1 1,5.928 1,12 c 0,6.072 4.928,11 11,11 1.016914,0 2.000582,-0.139769 2.935547,-0.398438 a 5.5,5.3468952 0 0 1 -1.134766,-3.232421 5.5,5.3468952 0 0 1 0,-0.0039 c -0.496852,0.09336 -1.021411,0.144532 -1.576172,0.144532 -1.40625,0 -2.6367189,-0.309246 -3.6914059,-0.927735 -1.054687,-0.61849 -1.8750005,-1.490885 -2.4609375,-2.617187 -0.585938,-1.126301 -0.8789062,-2.444662 -0.8789062,-3.955078 0,-1.582032 0.3059897,-2.9329431 0.9179687,-4.0527348 0.611979,-1.1263021 1.445313,-1.9856771 2.5,-2.578125 1.054687,-0.5924478 2.2395839,-0.8886718 3.5546879,-0.8886718 0.859375,0 1.666667,0.1236979 2.421875,0.3710937 0.755208,0.2473959 1.425781,0.6022137 2.011718,1.0644531 0.585938,0.4557292 1.061198,0.999349 1.425782,1.6308594 0.371093,0.6315105 0.595703,1.3346355 0.673828,2.109375 H 15.125 C 15.059896,9.3404948 14.94922,9.0475262 14.792969,8.7871094 14.63672,8.5266928 14.438152,8.3053386 14.197266,8.1230469 13.956382,7.9407552 13.676433,7.8007812 13.357422,7.703125 13.038411,7.6054688 12.683595,7.5566406 12.292969,7.5566406 c -0.755208,0 -1.399739,0.1790365 -1.933594,0.5371094 C 9.832031,8.4453125 9.4283845,8.9531251 9.1484375,9.6171875 8.8684895,10.27474 8.7285156,11.072266 8.7285156,12.009766 c 0,0.930989 0.1399739,1.728516 0.4199219,2.392578 0.286458,0.657551 0.696616,1.16211 1.2304685,1.513672 0.540365,0.351563 1.191405,0.527343 1.953125,0.527343 0.624999,0 1.165365,-0.107425 1.621094,-0.322265 0.45573,-0.214844 0.804036,-0.514324 1.044922,-0.898438 0.236238,-0.373008 0.358485,-0.803261 0.369141,-1.289062 h -2.908204 v -2.578125 h 6.347657 v 1.972656 c 0,0.250902 -0.01578,0.493972 -0.03906,0.732422 a 5.5,5.3468952 0 0 1 0.533203,-0.03711 5.5,5.3468952 0 0 1 3.261719,1.042968 C 22.845135,14.092452 23,13.064703 23,12 23,5.928 18.072,1 12,1 Z M 17.410156,16 16,17.410156 18.089844,19.5 16,21.589844 17.410156,23 19.5,20.910156 21.589844,23 23,21.589844 20.910156,19.5 23,17.410156 21.589844,16 19.5,18.089844 Z"/></svg>
