<?xml version="1.0" encoding="utf-8"?>
<svg version="1.1" xmlns="http://www.w3.org/2000/svg">
  <style type="text/css">
    @media screen {
    #small {
    display: initial;
    }
    #medium, #large {
    display: none;
    }
    }
    @media screen and (min-width: 24px) {
    #small {
    display: none;
    }
    #medium {
    display: initial;
    }
    }
    @media screen and (min-width: 32px) {
    #medium {
    display: none;
    }
    #large {
    display: initial;
    }
    }
  </style>
  <svg id="small" version="1.1" xmlns="http://www.w3.org/2000/svg" xmlns:xlink="http://www.w3.org/1999/xlink" x="0px" y="0px"
       viewBox="0 0 16 16" enable-background="new 0 0 16 16">
    <path d="M14.93,7.07C14.92,7,14.91,6.94,14.9,6.88c-0.05-0.3-0.11-0.59-0.2-0.88c0,0,0,0,0,0l0,0C13.85,3.11,11.17,1,8,1
	S2.15,3.11,1.29,6l0,0c0,0,0,0,0,0C1.21,6.29,1.15,6.58,1.1,6.88C1.09,6.94,1.08,7,1.07,7.07C1.03,7.37,1,7.68,1,8
	c0,3.87,3.13,7,7,7s7-3.13,7-7C15,7.68,14.97,7.37,14.93,7.07z M8,2c3.18,0,5.77,2.47,5.98,5.59C12.76,9.63,10.55,11,8,11
	S3.24,9.63,2.02,7.59C2.23,4.47,4.82,2,8,2z"/>
  </svg>

  <svg id="medium" version="1.1" xmlns="http://www.w3.org/2000/svg" xmlns:xlink="http://www.w3.org/1999/xlink" x="0px" y="0px"
       viewBox="0 0 24 24" enable-background="new 0 0 24 24">
    <path d="M22.95,11.04c-0.01-0.13-0.03-0.26-0.04-0.39c-0.02-0.16-0.05-0.32-0.07-0.48c-0.07-0.4-0.15-0.79-0.26-1.17c0,0,0,0,0,0
	l0,0C21.27,4.39,17.03,1,12,1S2.73,4.39,1.42,9l0,0c0,0,0,0,0,0c-0.11,0.38-0.19,0.77-0.26,1.17c-0.03,0.16-0.05,0.32-0.07,0.48
	c-0.02,0.13-0.03,0.26-0.04,0.39C1.02,11.36,1,11.68,1,12c0,6.08,4.92,11,11,11s11-4.92,11-11C23,11.68,22.98,11.36,22.95,11.04z
	 M12,2c5.1,0,9.29,3.82,9.91,8.74C20.14,14.44,16.37,17,12,17s-8.14-2.56-9.91-6.26C2.71,5.82,6.9,2,12,2z"/>
  </svg>

  <svg id="large" version="1.1" xmlns="http://www.w3.org/2000/svg" xmlns:xlink="http://www.w3.org/1999/xlink" x="0px" y="0px"
       viewBox="0 0 32 32" enable-background="new 0 0 32 32">
    <path d="M30.93,14.62c-0.01-0.14-0.03-0.29-0.05-0.43c-0.04-0.31-0.09-0.63-0.14-0.94c-0.03-0.15-0.06-0.31-0.09-0.46
	c-0.08-0.35-0.17-0.69-0.27-1.03c-0.03-0.09-0.04-0.17-0.07-0.26c0,0,0,0,0,0v0C28.4,5.41,22.72,1,16,1S3.6,5.41,1.69,11.5v0
	c0,0,0,0,0,0c-0.03,0.09-0.05,0.17-0.07,0.26c-0.1,0.34-0.19,0.68-0.27,1.03c-0.03,0.15-0.06,0.31-0.09,0.46
	c-0.06,0.31-0.1,0.62-0.14,0.94c-0.02,0.14-0.04,0.29-0.05,0.43C1.03,15.08,1,15.53,1,16c0,8.28,6.72,15,15,15s15-6.72,15-15
	C31,15.53,30.97,15.08,30.93,14.62z M16,3c6.71,0,12.23,5.08,12.92,11.61C26.31,19.03,21.51,22,16,22S5.69,19.03,3.08,14.61
	C3.77,8.08,9.29,3,16,3z"/>
  </svg>

</svg>