<?xml version="1.0" encoding="utf-8"?>
<svg version="1.1" xmlns="http://www.w3.org/2000/svg">
  <style type="text/css">
    @media screen {
    #small {
    display: initial;
    }
    #medium, #large {
    display: none;
    }
    }
    @media screen and (min-width: 24px) {
    #small {
    display: none;
    }
    #medium {
    display: initial;
    }
    }
    @media screen and (min-width: 32px) {
    #medium {
    display: none;
    }
    #large {
    display: initial;
    }
    }
  </style>
  <svg id="small" version="1.1" xmlns="http://www.w3.org/2000/svg" xmlns:xlink="http://www.w3.org/1999/xlink" x="0px" y="0px"
       viewBox="0 0 16 16" enable-background="new 0 0 16 16">
    <polygon points="14.85,1.85 14.15,1.15 8,7.29 1.85,1.15 1.15,1.85 7.29,8 1.15,14.15 1.85,14.85 8,8.71 14.15,14.85 14.85,14.15
	8.71,8 "/>
  </svg>

  <svg id="medium" version="1.1" xmlns="http://www.w3.org/2000/svg" xmlns:xlink="http://www.w3.org/1999/xlink" x="0px" y="0px"
       viewBox="0 0 24 24" enable-background="new 0 0 24 24">
    <polygon points="22.85,1.85 22.15,1.15 12,11.29 1.85,1.15 1.15,1.85 11.29,12 1.15,22.15 1.85,22.85 12,12.71 22.15,22.85
	22.85,22.15 12.71,12 "/>
  </svg>

  <svg id="large" version="1.1" xmlns="http://www.w3.org/2000/svg" xmlns:xlink="http://www.w3.org/1999/xlink" x="0px" y="0px"
       viewBox="0 0 32 32" enable-background="new 0 0 32 32">
    <polygon points="30.71,2.71 29.29,1.29 16,14.59 2.71,1.29 1.29,2.71 14.59,16 1.29,29.29 2.71,30.71 16,17.41 29.29,30.71
	30.71,29.29 17.41,16 "/>
  </svg>

</svg>
